<svg xmlns="http://www.w3.org/2000/svg" viewBox="0 0 1160 772"><defs><clipPath id="a"><polygon fill="none" points="586.27 551.37 443.98 551.37 456.69 488.9 573.57 488.9 586.27 551.37"/></clipPath><clipPath id="b"><rect width="597.57" height="411.45" x="216.34" y="85.84" fill="none" rx="15.08"/></clipPath><clipPath id="c"><rect width="559.45" height="337.27" x="235.4" y="100.38" fill="none" rx="17.3"/></clipPath><clipPath id="d"><path fill="none" d="M676.27,456.69H1044.7A25.31,25.31,0,0,0,1070,431.37h0a25.32,25.32,0,0,0-25.32-25.32H676.27l1.19,8.83a123.12,123.12,0,0,1,0,33Z"/></clipPath><clipPath id="e"><path fill="#1d1f21" d="M676.27,457.28h-.08a.58.58,0,0,1-.5-.67l1.19-8.82a122.75,122.75,0,0,0,0-32.83l-1.19-8.83a.59.59,0,0,1,1.17-.16l1.19,8.83a124.31,124.31,0,0,1,0,33.15l-1.19,8.82A.59.59,0,0,1,676.27,457.28Z"/></clipPath><clipPath id="f"><path fill="none" d="M601.78,589.79h441.65a30.39,30.39,0,0,0,30.39-30.4v-.78a30.38,30.38,0,0,0-30.39-30.39H601.78l.78,5.85a188.39,188.39,0,0,1,0,49.87Z"/></clipPath><clipPath id="g"><path fill="none" d="M620.12,528.22H856.27a0,0,0,0,1,0,0v61.57a0,0,0,0,1,0,0H620.12A26.76,26.76,0,0,1,593.36,563v-8A26.76,26.76,0,0,1,620.12,528.22Z" transform="rotate(180 724.815 559)"/></clipPath><clipPath id="h"><path fill="none" d="M1034.8,519.78H621.74a28.38,28.38,0,0,1-28.38-28.38h0A28.38,28.38,0,0,1,621.74,463H1034.8l-1.33,9.9a137.92,137.92,0,0,0,0,37Z"/></clipPath><clipPath id="i"><path fill="#1d1f21" d="M1034.8,520.37a.58.58,0,0,1-.58-.51l-1.34-9.89a139.11,139.11,0,0,1,0-37.14l1.34-9.9a.59.59,0,0,1,.66-.51.61.61,0,0,1,.51.67l-1.34,9.9a137.56,137.56,0,0,0,0,36.82l1.34,9.89a.6.6,0,0,1-.51.67Z"/></clipPath><clipPath id="j"><path fill="none" d="M385.06,647.26c4.29,0,18.55.66,18.86-3.69l-2.89-4A32.77,32.77,0,0,1,394.82,618l.43-6.05a8.26,8.26,0,1,0-16.47-1.17L377,625.8a66.39,66.39,0,0,1-2.15,10.71l-.95,3.3c-.32,4.55,6,7.11,10.55,7.43C384.66,647.26,384.86,647.26,385.06,647.26Z"/></clipPath><clipPath id="k"><path fill="none" d="M401,397.77s10.4,42.15,15.27,106.51c.77,10.1-17.8,115-17.8,115H375.85l3.08-105.1L358.25,395.8Z"/></clipPath><clipPath id="l"><path fill="none" d="M515.63,274.26s-2.77,2.22-5.72,1.55-6.91-.13-8,1.34a23.11,23.11,0,0,0-2.17,4.53l6.62,8.46s5.37-2.3,7.52-3a52.92,52.92,0,0,0,5.54-2.53Z"/></clipPath><clipPath id="m"><path fill="none" d="M372.08,265.12l3.28,21.81s-19.13,2.69-26.79-3.55c0,0,5-8.14.65-25Z"/></clipPath><clipPath id="n"><path fill="none" d="M327.89,388.71s-6.11,22.4-7.05,39.26-2.78,74.56-6.16,89.17S305,617.51,305,617.51l21.26,1.37s22-88.92,24.92-99.21c.53-1.87,15.18-59.2,20.6-80.43a64.08,64.08,0,0,0,2-15.89V388.71Z"/></clipPath><clipPath id="o"><path fill="none" d="M307.91,611.47c3.86,1.74,11.57,1.78,15.67,1.66l-2.64,21.17c-.33,4.33-3.36,12.24-7.64,12.24l-.62,0c-4.55-.34-6.84-9.78-6.5-14.33Z"/></clipPath><clipPath id="p"><path fill="none" d="M300.29,649.69A18.19,18.19,0,0,1,303.2,644a14.73,14.73,0,0,0,2.95-11.52L305,626.33a1,1,0,0,1,.58-1.11c6.57-2.83,13.34-.8,15.56,0a1,1,0,0,1,.64,1.07c-.24,1.75-.57,4.2-.92,6.71a15.85,15.85,0,0,0,3,11.35,17.87,17.87,0,0,1,2.61,5.22,2.89,2.89,0,0,1-2.73,3.77H303.05A2.88,2.88,0,0,1,300.29,649.69Z"/></clipPath><clipPath id="q"><path fill="none" d="M306.92,352.65c3.86-16.65,31.46,12.14,40.16,20.77S369.57,386,369.57,386v0a29.85,29.85,0,0,0,10-.51c2.29-.58,5.08-1.46,6.46-1.9v0a28,28,0,0,1,6.17-2.23c2.61-.45,7.42-.85,7.63-.85s.06.42,0,.82a2.28,2.28,0,0,1-.72,1.32,5.48,5.48,0,0,1-2.11,1.28,62.13,62.13,0,0,0-6.81,1.71,9.86,9.86,0,0,0-2.37,2,1.12,1.12,0,0,0,.22.16c3.11,1.83,15,4.18,16.08,4.32a15.57,15.57,0,0,1,1.8.35.6.6,0,0,1,.44.52,1.68,1.68,0,0,1-1.51,2.05c-1.11.1-4,.08-6.48,0,1.33.18,3.18.38,4.38.51a6.86,6.86,0,0,0,1.81,0c2-.31,1.39,1.83-.54,2.52a25.11,25.11,0,0,1-5.25.35l2.27.26a7.31,7.31,0,0,0,1.81,0c2-.31,1.4,1.82-.53,2.52-1.07.38-4.86.33-6,.36a12.55,12.55,0,0,1-1.54-.22c1.5.49,3.92,1.23,5,1.45,2.82.56,2.68,1.7.65,2a37.42,37.42,0,0,1-6.34-.22c-6.09-.94-13-4.34-13.07-4.38a53.29,53.29,0,0,0-6.07-2.38l-7.93-2v0c-6.29-1.67-22.53-6.25-35.58-12.39C302.47,369.66,304.67,362.37,306.92,352.65Z"/></clipPath><clipPath id="r"><path fill="none" d="M372.79,641.15c.85-5.8,1-10,1-10h1.07a1.33,1.33,0,0,1,1.34,1.24,2.2,2.2,0,0,0,.23.7,5.77,5.77,0,0,0,4.78,3.06c3.23.23,6.85.26,9.05-.5,3.2-1.09,3.79-5.65,3.89-7.74a2.51,2.51,0,0,1,1.09-1.94c1-.72,2.66-1.46,4-.41,3.11,2.36,13.35,9.54,18.66,13.25a14.71,14.71,0,0,0,6.71,2.56,32.92,32.92,0,0,1,8.8,2.15,2.72,2.72,0,0,1,1.56,3.35,7,7,0,0,1-4.48,4.23c-9.39,3.61-23.61.49-32.89,0S377.3,653,372.79,650C372,649.49,372.27,644.73,372.79,641.15Z"/></clipPath></defs><g data-name="Layer 1"><circle cx="824.28" cy="304.77" r="189.9" fill="#ebebeb" transform="rotate(-45 824.28 304.772)"/><path fill="#ebebeb" d="M946.1,111.56c93.14,85.12,99.64,229.63,14.52,322.78a228.31,228.31,0,0,1-212,70.2,228.51,228.51,0,0,0,241.87-62.33c85.12-93.15,78.62-237.66-14.53-322.78A227.41,227.41,0,0,0,865.18,63.74,227.7,227.7,0,0,1,946.1,111.56Z"/><path fill="#fff" d="M876.31,180.33c-8.49,12.64-12.76,27-5.76,40.64,4.84,11.43,23.52,27.76,9.7,39.56a20.29,20.29,0,0,1-5.53,3c2.2-2.88,4.69-6.28,4.75-9.78,0-3.28-1.92-5.86-3.91-8.5-5.71-7-14.19-15.81-16.92-26.06-4.59-15.11,3.52-32.37,17.67-38.9Z"/><path fill="#fff" d="M911.79,206.49c-13.72,17.46-14.6,33.33-1.51,51.12,5.47,8,15,20.2,5.07,28.75a22.07,22.07,0,0,1-5.15,3.37,34.36,34.36,0,0,0,3.7-4.62c3.38-4.83,1.83-9.81-1.7-14.39-5.59-7.43-13.64-15.77-16.42-25.84-4.52-14.59,3.06-31,16-38.39Z"/><path fill="#609bf3" d="M834.1,275.65H964.3a2.63,2.63,0,0,1,2.63,2.63V340.8a62.78,62.78,0,0,1-62.78,62.78h-9.9a62.78,62.78,0,0,1-62.78-62.78V278.27A2.63,2.63,0,0,1,834.1,275.65Z"/><path fill="#609bf3" d="M976.06,351.35H951.41V290.68H979a18.78,18.78,0,0,1,18.57,21.54l-3.52,23.59A18.34,18.34,0,0,1,976.06,351.35Zm-14.83-9.82h14.83a8.46,8.46,0,0,0,8.32-7.17l3.51-23.58A8.94,8.94,0,0,0,979,300.51H961.23Z"/><path fill="#2868b6" d="M957,275.65H942.89v49.06a64.08,64.08,0,0,1-64.09,64.08h0a64.08,64.08,0,0,1-15.65-1.93,63.74,63.74,0,0,0,34.12,9.85h0a64.1,64.1,0,0,0,64.09-64.09V280A4.36,4.36,0,0,0,957,275.65Z"/><path fill="#fff" d="M840.73,365.15a67.7,67.7,0,0,1-6.58-29.3V278.48h1.18v57.37a66.56,66.56,0,0,0,6.47,28.79Z"/><rect width="349.8" height="9.25" x="276.14" y="564.55" fill="#ebebeb"/><polygon fill="#2868b6" points="586.27 551.37 443.98 551.37 456.69 488.9 573.57 488.9 586.27 551.37"/><g clip-path="url(#a)"><path fill="#2b3062" d="M595,554.74l-14.45-14.45a104.56,104.56,0,0,0-73.31-30.62l-93.09-.54,4.76-23.6H581.08Z"/></g><rect width="597.57" height="411.45" x="216.34" y="85.84" fill="#609bf3" rx="15.08"/><path fill="#609bf3" d="M616.14,564.55h-202a20.28,20.28,0,0,1,20.28-20.28H595.87a20.28,20.28,0,0,1,20.27,20.28Z"/><g clip-path="url(#b)"><polygon fill="#aed1f7" points="856.25 469.52 856.25 61.96 174 61.96 174 61.96 174 469.52 856.25 469.52"/><rect width="559.45" height="337.27" x="235.4" y="100.38" fill="#fff" rx="17.3"/><g clip-path="url(#c)"><rect width="589.7" height="36.93" x="216.34" y="85.85" fill="#2b3062"/><circle cx="248.94" cy="110.15" r="3.58" fill="#fff"/><circle cx="262.55" cy="110.15" r="3.58" fill="#fff"/><circle cx="276.16" cy="110.15" r="3.58" fill="#fff"/></g></g><rect width="21.96" height="21.96" x="258.19" y="158.37" fill="#2b3062"/><rect width="21.96" height="21.96" x="258.19" y="203.24" fill="#2b3062"/><rect width="21.96" height="21.96" x="258.19" y="248.11" fill="#2b3062"/><rect width="21.96" height="21.96" x="258.19" y="292.97" fill="#2b3062"/><rect width="21.96" height="21.96" x="258.19" y="337.84" fill="#2b3062"/><rect width="21.96" height="21.96" x="258.19" y="382.71" fill="#2b3062"/><rect width="92.73" height="21.96" x="317.99" y="158.37" fill="#609bf3"/><rect width="280.61" height="21.96" x="422.77" y="158.37" fill="#f9de8a"/><rect width="73.67" height="21.96" x="522.74" y="203.24" fill="#f9de8a"/><rect width="139.31" height="21.96" x="371.38" y="203.24" fill="#609bf3"/><rect width="148.31" height="21.96" x="608.47" y="203.24" fill="#609bf3"/><rect width="138.06" height="21.96" x="317.99" y="248.11" fill="#609bf3"/><rect width="235.28" height="21.96" x="468.11" y="248.11" fill="#f9de8a"/><rect width="139.31" height="21.96" x="371.38" y="292.97" fill="#f9de8a"/><rect width="234.03" height="21.96" x="522.74" y="292.97" fill="#609bf3"/><rect width="225.03" height="21.96" x="371.38" y="337.84" fill="#609bf3"/><rect width="148.31" height="21.96" x="608.47" y="337.84" fill="#f9de8a"/><rect width="48.22" height="21.96" x="436.25" y="382.71" fill="#f9de8a"/><rect width="92.73" height="21.96" x="331.47" y="382.71" fill="#f9de8a"/><rect width="220.33" height="21.96" x="496.53" y="382.71" fill="#609bf3"/><rect width="497.23" height="10.34" x="581.92" y="594.07" fill="#f9de8a"/><rect width="266.23" height="13.19" x="490.54" y="695.07" fill="#f9de8a"/><rect width="169.14" height="10.34" x="80.84" y="601.34" fill="#f9de8a"/><rect width="328.48" height="8.06" x="240.43" y="655.93" fill="#609bf3"/><rect width="187.77" height="5.83" x="709.33" y="647.85" fill="#ebebeb"/><path fill="#f9a0be" d="M711.74,406.05H1070a0,0,0,0,1,0,0v50.64a0,0,0,0,1,0,0H711.74a25,25,0,0,1-25-25V431a25,25,0,0,1,25-25Z" transform="rotate(180 878.385 431.375)"/><g clip-path="url(#d)"><path fill="#fff" d="M642.51,408.57H862.3c13.24,0,24,10.21,24,22.8h0c0,12.6-10.72,22.81-24,22.81H642.51Z"/><path fill="#aed1f7" d="M882.48,436h0a22.8,22.8,0,0,0-22.81-22.8H654.24v-4.67H863.46a22.8,22.8,0,0,1,22.8,22.8h0a22.71,22.71,0,0,1-7.11,16.54A22.72,22.72,0,0,0,882.48,436Z"/></g><path fill="#1d1f21" d="M716.14,428.29H861.07a.28.28,0,0,0,.28-.29.27.27,0,0,0-.28-.28H716.14a.27.27,0,0,0-.28.28A.28.28,0,0,0,716.14,428.29Z"/><path fill="#1d1f21" d="M716.14,443.13H861.07a.29.29,0,0,0,0-.57H716.14a.29.29,0,0,0,0,.57Z"/><path fill="#1d1f21" d="M705.08,435.71h37a.29.29,0,1,0,0-.57h-37a.29.29,0,0,0,0,.57Z"/><path fill="#1d1f21" d="M752.52,435.71H873.15a.29.29,0,0,0,0-.57H752.52a.29.29,0,1,0,0,.57Z"/><path fill="#1d1f21" d="M705.08,420.86H873.15a.29.29,0,0,0,0-.57H705.08a.29.29,0,0,0,0,.57Z"/><path fill="#1d1f21" d="M676.27,457.28h-.08a.58.58,0,0,1-.5-.67l1.19-8.82a122.75,122.75,0,0,0,0-32.83l-1.19-8.83a.59.59,0,0,1,1.17-.16l1.19,8.83a124.31,124.31,0,0,1,0,33.15l-1.19,8.82A.59.59,0,0,1,676.27,457.28Z"/><g clip-path="url(#e)"><path fill="#1d1f21" d="M862.56,457.28h-332a14.67,14.67,0,0,1-14.66-14.66V420.13a14.68,14.68,0,0,1,14.66-14.67h332a25.61,25.61,0,0,1,25.58,25.59v.65A25.6,25.6,0,0,1,862.56,457.28Zm-332-50.63a13.49,13.49,0,0,0-13.48,13.48v22.49a13.5,13.5,0,0,0,13.48,13.48h332A24.43,24.43,0,0,0,887,431.7v-.65a24.43,24.43,0,0,0-24.4-24.4Z"/></g><path fill="#f1317a" d="M1044.7,459.76H672.85a3.07,3.07,0,1,1,0-6.13H1044.7a22.26,22.26,0,0,0,0-44.51H672.85a3.07,3.07,0,1,1,0-6.13H1044.7a28.39,28.39,0,1,1,0,56.77Z"/><path fill="#2b3062" d="M921.58,417.18v20.93c0,3.48-.76,6-2.26,7.54s-3.9,2.32-7.18,2.32a16.31,16.31,0,0,1-4.42-.47v-4.4q2.47.18,3.51.18c1.82,0,3.06-.34,3.73-1s1-2.07,1-4.15V417.18Z"/><path fill="#2b3062" d="M951,447.5h-5.84l-2.43-7.22H931.08l-2.37,7.22H924l10.06-30.32h6.73Zm-9.73-11.59-4.42-13.53-4.42,13.53Z"/><path fill="#2b3062" d="M964.58,447.5H959l-9.36-30.32h5.78l6.95,23.24,7.11-23.24h4.55Z"/><path fill="#2b3062" d="M999.65,447.5h-5.84l-2.42-7.22H979.73l-2.38,7.22h-4.66l10.06-30.32h6.73Zm-9.73-11.59-4.42-13.53-4.42,13.53Z"/><path fill="#aed1f7" d="M637.59,528.22h421a15.22,15.22,0,0,1,15.22,15.22v31.13a15.22,15.22,0,0,1-15.22,15.22h-421A26.76,26.76,0,0,1,610.82,563v-8A26.76,26.76,0,0,1,637.59,528.22Z" transform="rotate(180 842.32 559)"/><g clip-path="url(#f)"><path fill="#fff" d="M620.12,528.22H856.27a0,0,0,0,1,0,0v61.57a0,0,0,0,1,0,0H620.12A26.76,26.76,0,0,1,593.36,563v-8A26.76,26.76,0,0,1,620.12,528.22Z" transform="rotate(180 724.815 559)"/><g clip-path="url(#g)"><path fill="#ebebeb" d="M851.82,512.38,580.77,522.1v15.3H832.06a33,33,0,0,1,25.38,11.68C863.82,536.54,866,512.38,851.82,512.38Z"/></g><path fill="#2868b6" d="M987.5,559h0a32.85,32.85,0,0,0-32.84-32.84h42.58a32.55,32.55,0,0,1,32.55,32.55v.58a32.55,32.55,0,0,1-32.55,32.55H954.66A32.84,32.84,0,0,0,987.5,559Z"/><path fill="#2868b6" d="M1013,591.9v-2c13.31,0,24.14-14.15,24.14-31.53S1026.33,526.8,1013,526.8v-2c14.44,0,26.2,15.06,26.2,33.57S1027.46,591.9,1013,591.9Z"/><path fill="#2868b6" d="M950.79,591.9v-2c13.32,0,24.15-14.15,24.15-31.53s-10.83-31.52-24.15-31.52v-2c14.45,0,26.2,15.06,26.2,33.57S965.24,591.9,950.79,591.9Z"/></g><path fill="#1d1f21" d="M601.78,590.38h-.08a.58.58,0,0,1-.5-.66l.78-5.85a189,189,0,0,0,0-49.72l-.78-5.85a.58.58,0,0,1,.5-.66.6.6,0,0,1,.67.51l.78,5.85a189.59,189.59,0,0,1,0,50l-.78,5.85A.6.6,0,0,1,601.78,590.38Z"/><path fill="#2868b6" d="M1044.48,594.07H598.7a4.29,4.29,0,0,1,0-8.57h445.78a26.13,26.13,0,0,0,26.1-26.11v-.78a26.13,26.13,0,0,0-26.1-26.11H598.7a4.29,4.29,0,0,1,0-8.57h445.78a34.72,34.72,0,0,1,34.68,34.68v.78A34.72,34.72,0,0,1,1044.48,594.07Z"/><path fill="#1d1f21" d="M825.36,554.17H650.91a.31.31,0,0,1-.3-.3.3.3,0,0,1,.3-.29H825.36a.29.29,0,0,1,.29.29A.3.3,0,0,1,825.36,554.17Z"/><path fill="#1d1f21" d="M825.36,572.64H650.91a.3.3,0,1,1,0-.59H825.36a.3.3,0,0,1,0,.59Z"/><path fill="#1d1f21" d="M681.69,562.38h-43.1a.3.3,0,0,1,0-.6h43.1a.3.3,0,1,1,0,.6Z"/><path fill="#1d1f21" d="M839.72,562.38H694a.3.3,0,1,1,0-.6H839.72a.3.3,0,1,1,0,.6Z"/><path fill="#1d1f21" d="M839.72,546H638.59a.3.3,0,0,1-.29-.3.29.29,0,0,1,.29-.29H839.72a.29.29,0,0,1,.3.29A.3.3,0,0,1,839.72,546Z"/><path fill="#2b3062" d="M880.4,574.39h-5.46V544.07h12.42c3.53,0,6.16.89,7.87,2.67a8.84,8.84,0,0,1,2.57,6.32,8.75,8.75,0,0,1-2.78,6.73,9.94,9.94,0,0,1-7,2.58H880.4Zm0-16.71h6.47a5.46,5.46,0,0,0,3.86-1.24,4.3,4.3,0,0,0,1.33-3.31,4.56,4.56,0,0,0-1.23-3.2c-.82-.89-2.31-1.33-4.45-1.33h-6Z"/><path fill="#2b3062" d="M924.69,574.39h-5.46V561.22H907.66v13.17h-5.47V544.07h5.47v12.46h11.57V544.07h5.46Z"/><path fill="#2b3062" d="M936.82,574.39h-5.46V544.07h12.41q5.31,0,7.88,2.67a8.83,8.83,0,0,1,2.56,6.32,8.74,8.74,0,0,1-2.77,6.73,9.94,9.94,0,0,1-7,2.58h-7.58Zm0-16.71h6.47a5.46,5.46,0,0,0,3.86-1.24,4.3,4.3,0,0,0,1.33-3.31,4.56,4.56,0,0,0-1.23-3.2c-.82-.89-2.31-1.33-4.45-1.33h-6Z"/><path fill="#f9de8a" d="M618.35,463h404.71a0,0,0,0,1,0,0v56.77a0,0,0,0,1,0,0H618.35a25,25,0,0,1-25-25V488A25,25,0,0,1,618.35,463Z"/><g clip-path="url(#h)"><path fill="#fff" d="M1072.66,465.83H826.23c-14.83,0-26.86,11.45-26.86,25.57h0c0,14.12,12,25.56,26.86,25.56h246.43Z"/><path fill="#aed1f7" d="M803.62,496.63h0a25.56,25.56,0,0,1,25.56-25.56H1059.5v-5.24H824.94a25.57,25.57,0,0,0-25.57,25.57h0a25.49,25.49,0,0,0,8,18.54A25.43,25.43,0,0,1,803.62,496.63Z"/></g><path fill="#1d1f21" d="M990.1,487.93H827.62a.32.32,0,1,1,0-.63H990.1a.32.32,0,1,1,0,.63Z"/><path fill="#1d1f21" d="M990.1,504.58H827.62a.32.32,0,0,1-.32-.32.32.32,0,0,1,.32-.32H990.1a.32.32,0,0,1,.32.32A.32.32,0,0,1,990.1,504.58Z"/><path fill="#1d1f21" d="M1002.5,496.26H961.06a.32.32,0,0,1-.31-.32.31.31,0,0,1,.31-.32h41.44a.32.32,0,0,1,.32.32A.32.32,0,0,1,1002.5,496.26Z"/><path fill="#1d1f21" d="M949.32,496.26H814.08a.32.32,0,0,1-.32-.32.32.32,0,0,1,.32-.32H949.32a.32.32,0,0,1,.32.32A.33.33,0,0,1,949.32,496.26Z"/><path fill="#1d1f21" d="M1002.5,479.61H814.08a.32.32,0,0,1-.32-.32.32.32,0,0,1,.32-.32H1002.5a.32.32,0,0,1,.32.32A.32.32,0,0,1,1002.5,479.61Z"/><path fill="#f1317a" d="M857.68,479.07l20.49-.1c4.38,0,7,3.56,7,7.94v25.47L874.81,507l-10.38,5.43V486.91A7.93,7.93,0,0,0,857.68,479.07Z"/><path fill="#1d1f21" d="M1034.8,520.37a.58.58,0,0,1-.58-.51l-1.34-9.89a139.11,139.11,0,0,1,0-37.14l1.34-9.9a.59.59,0,0,1,.66-.51.61.61,0,0,1,.51.67l-1.34,9.9a137.56,137.56,0,0,0,0,36.82l1.34,9.89a.6.6,0,0,1-.51.67Z"/><g clip-path="url(#i)"><path fill="#1d1f21" d="M1199.85,520.37H822.92a25.6,25.6,0,0,1-25.58-25.58V488a25.61,25.61,0,0,1,25.58-25.58h376.93a14.68,14.68,0,0,1,14.67,14.66v28.63A14.68,14.68,0,0,1,1199.85,520.37ZM822.92,463.6a24.43,24.43,0,0,0-24.4,24.4v6.79a24.43,24.43,0,0,0,24.4,24.4h376.93a13.49,13.49,0,0,0,13.48-13.48V477.08a13.49,13.49,0,0,0-13.48-13.48Z"/></g><path fill="#f2b13b" d="M1038.64,523.22H621.74a31.83,31.83,0,0,1,0-63.65h416.9a3.44,3.44,0,0,1,0,6.88H621.74a24.95,24.95,0,1,0,0,49.89h416.9a3.44,3.44,0,0,1,0,6.88Z"/><path fill="#2b3062" d="M680.68,506.56h-5.46V493.38H663.64v13.18h-5.46V476.24h5.46V488.7h11.58V476.24h5.46Z"/><path fill="#2b3062" d="M697.94,506.56h-5.86V480.92H684v-4.68h22v4.68h-8.06Z"/><path fill="#2b3062" d="M739.08,506.56H733.5V480l-8.4,26.55h-2.86L713.8,480v26.55h-4.47V476.24h8.56l6.35,19.52,6.24-19.52h8.6Z"/><path fill="#2b3062" d="M764.42,506.56H745.76V476.24h5.75V501.6h12.91Z"/><path fill="#609bf3" d="M113,335.87l-.77,8.2a1.2,1.2,0,0,1-1.54,1l-8.49-2.46a1.21,1.21,0,0,1-.87-1.27l.47-4.9a1.2,1.2,0,0,1,1.08-1.09l8.8-.83A1.2,1.2,0,0,1,113,335.87Z"/><path fill="#609bf3" d="M148.5,315.09l-8.2-.78a1.2,1.2,0,0,1-1-1.53l2.46-8.49a1.21,1.21,0,0,1,1.27-.87l4.91.46A1.21,1.21,0,0,1,149,305l.84,8.8A1.21,1.21,0,0,1,148.5,315.09Z"/><path fill="#609bf3" d="M133.45,315.18,126,318.61a1.2,1.2,0,0,1-1.67-.81l-2.12-8.58a1.23,1.23,0,0,1,.67-1.39l4.48-2.05a1.22,1.22,0,0,1,1.49.4l5.12,7.2A1.21,1.21,0,0,1,133.45,315.18Z"/><path fill="#609bf3" d="M120.46,322.79l-4.77,6.71a1.21,1.21,0,0,1-1.86.14l-6.12-6.38a1.2,1.2,0,0,1-.11-1.53l2.85-4a1.22,1.22,0,0,1,1.49-.4l8,3.68A1.22,1.22,0,0,1,120.46,322.79Z"/><path fill="#609bf3" d="M113.1,350.92l3.43,7.49a1.2,1.2,0,0,1-.81,1.67l-8.58,2.12a1.2,1.2,0,0,1-1.38-.67l-2.06-4.48a1.2,1.2,0,0,1,.4-1.48l7.21-5.13A1.21,1.21,0,0,1,113.1,350.92Z"/><path fill="#609bf3" d="M120.71,363.92l6.71,4.76a1.21,1.21,0,0,1,.14,1.86l-6.38,6.12a1.2,1.2,0,0,1-1.53.11l-4-2.85a1.19,1.19,0,0,1-.39-1.48l3.67-8A1.21,1.21,0,0,1,120.71,363.92Z"/><path fill="#609bf3" d="M133.79,371.36l8.2.78a1.21,1.21,0,0,1,1,1.53l-2.46,8.49a1.22,1.22,0,0,1-1.28.87l-4.9-.46a1.21,1.21,0,0,1-1.09-1.09l-.83-8.8A1.21,1.21,0,0,1,133.79,371.36Z"/><path fill="#609bf3" d="M148.85,371.27l7.48-3.43a1.21,1.21,0,0,1,1.68.81l2.11,8.58a1.21,1.21,0,0,1-.67,1.39L155,380.67a1.2,1.2,0,0,1-1.48-.4l-5.12-7.2A1.21,1.21,0,0,1,148.85,371.27Z"/><path fill="#609bf3" d="M161.84,363.66l4.77-6.71a1.2,1.2,0,0,1,1.85-.14l6.12,6.38a1.21,1.21,0,0,1,.12,1.53l-2.86,4a1.2,1.2,0,0,1-1.48.4l-8-3.68A1.21,1.21,0,0,1,161.84,363.66Z"/><path fill="#609bf3" d="M169.29,350.58l.77-8.2a1.2,1.2,0,0,1,1.53-1l8.5,2.46a1.21,1.21,0,0,1,.86,1.27l-.46,4.9a1.21,1.21,0,0,1-1.09,1.09l-8.8.83A1.2,1.2,0,0,1,169.29,350.58Z"/><path fill="#609bf3" d="M169.19,335.53,165.76,328a1.21,1.21,0,0,1,.81-1.67l8.58-2.12a1.2,1.2,0,0,1,1.39.67l2.05,4.48a1.19,1.19,0,0,1-.4,1.48L171,336A1.22,1.22,0,0,1,169.19,335.53Z"/><path fill="#609bf3" d="M161.59,322.53l-6.72-4.76a1.21,1.21,0,0,1-.13-1.86l6.37-6.12a1.21,1.21,0,0,1,1.54-.11l4,2.85a1.2,1.2,0,0,1,.4,1.48l-3.68,8A1.2,1.2,0,0,1,161.59,322.53Z"/><path fill="#609bf3" d="M150.34,373.08A31.24,31.24,0,1,1,171,334,31.28,31.28,0,0,1,150.34,373.08Zm-15.77-51.22a22.36,22.36,0,1,0,27.94,14.78A22.4,22.4,0,0,0,134.57,321.86Z"/><path fill="#609bf3" d="M143.32,320.2a23.13,23.13,0,1,0,20.85,25.19A23.13,23.13,0,0,0,143.32,320.2Zm-3.71,39.31a16.36,16.36,0,1,1,17.82-14.75A16.35,16.35,0,0,1,139.61,359.51Z"/><path fill="#2b6ab7" d="M125.36,503.43l-1.58,16.87a2.48,2.48,0,0,1-3.17,2.15l-17.47-5.06a2.49,2.49,0,0,1-1.78-2.62l1-10.09a2.48,2.48,0,0,1,2.24-2.24l18.11-1.71A2.47,2.47,0,0,1,125.36,503.43Z"/><path fill="#2b6ab7" d="M198.4,460.66l-16.87-1.58a2.48,2.48,0,0,1-2.15-3.17l5.06-17.47a2.49,2.49,0,0,1,2.62-1.78l10.09.95a2.49,2.49,0,0,1,2.24,2.24L201.1,458A2.47,2.47,0,0,1,198.4,460.66Z"/><path fill="#2b6ab7" d="M167.42,460.85,152,467.91a2.48,2.48,0,0,1-3.45-1.66l-4.35-17.66a2.49,2.49,0,0,1,1.38-2.85l9.21-4.22a2.47,2.47,0,0,1,3.06.82l10.54,14.82A2.47,2.47,0,0,1,167.42,460.85Z"/><path fill="#2b6ab7" d="M140.69,476.51l-9.81,13.81a2.49,2.49,0,0,1-3.82.29l-12.59-13.13a2.47,2.47,0,0,1-.24-3.15l5.87-8.26a2.47,2.47,0,0,1,3.06-.82l16.54,7.56A2.49,2.49,0,0,1,140.69,476.51Z"/><path fill="#2b6ab7" d="M125.55,534.41l7.06,15.4a2.48,2.48,0,0,1-1.66,3.45l-17.66,4.35a2.49,2.49,0,0,1-2.85-1.38L106.22,547A2.48,2.48,0,0,1,107,544l14.83-10.54A2.47,2.47,0,0,1,125.55,534.41Z"/><path fill="#2b6ab7" d="M141.21,561.14,155,571a2.49,2.49,0,0,1,.29,3.82l-13.13,12.59a2.47,2.47,0,0,1-3.15.24l-8.27-5.87a2.49,2.49,0,0,1-.82-3.06l7.57-16.54A2.49,2.49,0,0,1,141.21,561.14Z"/><path fill="#2b6ab7" d="M168.13,576.47,185,578.05a2.48,2.48,0,0,1,2.15,3.17l-5.06,17.47a2.5,2.5,0,0,1-2.62,1.78l-10.09-1a2.48,2.48,0,0,1-2.24-2.24l-1.71-18.11A2.47,2.47,0,0,1,168.13,576.47Z"/><path fill="#2b6ab7" d="M199.11,576.28l15.4-7.06a2.49,2.49,0,0,1,3.45,1.66l4.35,17.66a2.49,2.49,0,0,1-1.38,2.85l-9.21,4.22a2.48,2.48,0,0,1-3.06-.81L198.12,580A2.47,2.47,0,0,1,199.11,576.28Z"/><path fill="#2b6ab7" d="M225.84,560.62l9.81-13.81a2.49,2.49,0,0,1,3.82-.29l12.59,13.13a2.47,2.47,0,0,1,.24,3.15l-5.87,8.27a2.49,2.49,0,0,1-3.06.82l-16.54-7.57A2.49,2.49,0,0,1,225.84,560.62Z"/><path fill="#2b6ab7" d="M241.16,533.7l1.59-16.87a2.48,2.48,0,0,1,3.17-2.15l17.47,5.06a2.49,2.49,0,0,1,1.78,2.62l-.95,10.09a2.49,2.49,0,0,1-2.24,2.24l-18.11,1.71A2.48,2.48,0,0,1,241.16,533.7Z"/><path fill="#2b6ab7" d="M241,502.72l-7.06-15.4a2.49,2.49,0,0,1,1.66-3.45l17.66-4.35a2.49,2.49,0,0,1,2.85,1.38l4.22,9.21a2.47,2.47,0,0,1-.82,3.06l-14.82,10.54A2.47,2.47,0,0,1,241,502.72Z"/><path fill="#2b6ab7" d="M225.32,476l-13.81-9.81a2.49,2.49,0,0,1-.29-3.82l13.13-12.59a2.47,2.47,0,0,1,3.15-.24l8.26,5.87a2.47,2.47,0,0,1,.82,3.06L229,475A2.49,2.49,0,0,1,225.32,476Z"/><path fill="#2b6ab7" d="M202.19,580a64.28,64.28,0,1,1,42.51-80.36A64.37,64.37,0,0,1,202.19,580ZM169.72,474.61A46,46,0,1,0,227.22,505,46.05,46.05,0,0,0,169.72,474.61Z"/><path fill="#2b6ab7" d="M187.73,471.19A47.59,47.59,0,1,0,230.64,523,47.59,47.59,0,0,0,187.73,471.19Zm-7.62,80.88a33.65,33.65,0,1,1,36.66-30.35A33.66,33.66,0,0,1,180.11,552.07Z"/><path fill="#ff9d83" d="M385.06,647.26c4.29,0,18.55.66,18.86-3.69l-2.89-4A32.77,32.77,0,0,1,394.82,618l.43-6.05a8.26,8.26,0,1,0-16.47-1.17L377,625.8a66.39,66.39,0,0,1-2.15,10.71l-.95,3.3c-.32,4.55,6,7.11,10.55,7.43C384.66,647.26,384.86,647.26,385.06,647.26Z"/><g clip-path="url(#j)"><polygon fill="#e26e6c" points="399.54 629.96 372.31 623.82 374.43 619.41 397.15 619.73 399.54 629.96"/></g><path fill="#ff9d83" d="M500.73,281s-18.87,17-28.79,24c-13.71,9.64-43.15,22-29.2,32.53,18.21,13.76,63.63-47.46,63.63-47.46Z"/><path fill="#2b6ab7" d="M401,397.77s10.4,42.15,15.27,106.51c.77,10.1-17.8,115-17.8,115H375.85l3.08-105.1L358.25,395.8Z"/><g clip-path="url(#k)"><path fill="#2b3062" d="M365.18,495.15l-6.93-48.48,14.05-15.6s17,50.59,14.95,82.2-9.42,105-9.42,105L362.53,615Z"/></g><path fill="#ff9d83" d="M515.63,274.26s-2.77,2.22-5.72,1.55-6.91-.13-8,1.34a23.11,23.11,0,0,0-2.17,4.53l6.62,8.46s5.37-2.3,7.52-3a52.92,52.92,0,0,0,5.54-2.53Z"/><g clip-path="url(#l)"><path fill="#e26e6c" d="M521.54,278.17s-4.29,5.64-8.08,3.16-10.4-4.41-12.64-3.16-1.79-5.54,3.56-5.87a96.14,96.14,0,0,1,11.57.17Z"/></g><path fill="#ff9d83" d="M372.08,265.12l3.28,21.81s-19.13,2.69-26.79-3.55c0,0,5-8.14.65-25Z"/><g clip-path="url(#m)"><path fill="#e26e6c" d="M376.26,263.56s-.58,7.18-10.41,5.88l-6.61-.88a5.51,5.51,0,0,0-6.13,4.36l-2.55,14s-8.71-17.75-8.13-17.85,5.21-21.92,5.21-21.92S371.19,252,376.26,263.56Z"/></g><path fill="#2b6ab7" d="M327.89,388.71s-6.11,22.4-7.05,39.26-2.78,74.56-6.16,89.17S305,617.51,305,617.51l21.26,1.37s22-88.92,24.92-99.21c.53-1.87,15.18-59.2,20.6-80.43a64.08,64.08,0,0,0,2-15.89V388.71Z"/><g clip-path="url(#n)"><path fill="#2b3062" d="M339.43,393.77s-9.45,47.77-10.21,73.07S311.3,564.33,308.08,579s-10.26-47.21-9.41-47.21,16-136,16-136Z"/></g><path fill="#fff" d="M307.68,614.51a.31.31,0,0,1-.3-.29c0-.3,0-30.4,14.38-81.19,4.27-15,8.33-44.06,12.08-86.34l.1-1.08c1.14-12.88,6.63-39.66,6.68-39.93a.3.3,0,0,1,.35-.23.29.29,0,0,1,.23.35c-.05.27-5.53,27-6.67,39.86l-.1,1.09c-3.75,42.31-7.82,71.39-12.1,86.44-14.39,50.7-14.36,80.72-14.35,81a.29.29,0,0,1-.3.3Z"/><path fill="#ff9d83" d="M307.91,611.47c3.86,1.74,11.57,1.78,15.67,1.66l-2.64,21.17c-.33,4.33-3.36,12.24-7.64,12.24l-.62,0c-4.55-.34-6.84-9.78-6.5-14.33Z"/><g clip-path="url(#o)"><path fill="#e26e6c" d="M329.22,617a2.43,2.43,0,0,0-1.09-2c-1.26-.84-4-2-9.79-2-13.3,0-13.28-2.39-14.68-.74s-1.81,8.93.67,9.13c3.32.27,7.1.69,11,.82a38.8,38.8,0,0,1,10,1.8C328,624.91,329.25,619.57,329.22,617Z"/></g><path fill="#f9de8a" d="M449.67,317.32s-.51,13.07,4.62,20.49c.5.73-28.6,3-52.27-16.58-19.69-16.27-4.85-33.72-4.85-33.72S415.83,295.64,449.67,317.32Z"/><path fill="#f1317a" d="M325.37,396.3c1.12-5.06,6.46-38.51,3.65-57.62-2.24-15.2-4.24-38.61-5-47.54-.18-2.18,4.79-6,6.88-6.61,4.26-1.29,8.34-1.49,18.28-2.51,2.15,1,6.73,1.93,11.92,2.27,7.38.47,13.44-.38,13.54-1.9a.59.59,0,0,0,0-.26,103.75,103.75,0,0,1,10.59,1.8c4,.89,18.08,4,20.33,10.35,2.48,7,1.68,14.24-1.36,39.35a312.23,312.23,0,0,0,.84,78.19s-6.75,2.7-26.33,1.9c-15.38-.63-55.51-4.07-55.51-4.07S324.24,401.35,325.37,396.3Z"/><rect width="210.59" height="82.82" x="320.47" y="266.05" fill="#fff" transform="rotate(134.38 425.766 307.46)"/><path fill="#609bf3" d="M336.85,352.62,469,217.59a1.22,1.22,0,0,0,0-1.72l-2.32-2.26a1.22,1.22,0,0,0-1.72,0l-132.14,135a1.22,1.22,0,0,0,0,1.72l2.31,2.26A1.22,1.22,0,0,0,336.85,352.62Z"/><path fill="#2b3062" d="M468.78,254.41c1-1.47.48-2.38-.4-3.25s-2-1.68-2.83-2.54c-1.54-1.51-1.13-3.27-.28-4.6l-.07-.07a3.47,3.47,0,0,1-4.58-.15c-.85-.83-1.37-1.57-2.35-2.52a2.13,2.13,0,0,0-3.18-.27l-.69-.67c1.38-1.28,3.74-2.51,5.81-.48,1,.94,1.31,1.48,2.39,2.53s2,1.4,3.77-.21l.66.64c-1.54,1.87-1.13,2.8-.18,3.73,1.12,1.1,2,1.74,3,2.77,2.06,2,.76,4.42-.43,5.74Z"/><path fill="#1d1f21" d="M345.17,361.87a.3.3,0,0,1-.21-.09.3.3,0,0,1,0-.42L375.63,330a.29.29,0,0,1,.41,0,.3.3,0,0,1,0,.42l-30.67,31.34A.29.29,0,0,1,345.17,361.87Z"/><path fill="#1d1f21" d="M390.29,315.76a.34.34,0,0,1-.21-.08.31.31,0,0,1,0-.42l67.26-68.74a.31.31,0,0,1,.42,0,.3.3,0,0,1,0,.42L390.5,315.67A.29.29,0,0,1,390.29,315.76Z"/><path fill="#1d1f21" d="M350.6,367.19a.28.28,0,0,1-.2-.09.3.3,0,0,1,0-.42l71.44-73a.29.29,0,0,1,.41,0,.3.3,0,0,1,0,.42l-71.43,73A.31.31,0,0,1,350.6,367.19Z"/><path fill="#1d1f21" d="M430.93,285.1a.34.34,0,0,1-.21-.08.31.31,0,0,1,0-.42l32.06-32.76a.28.28,0,0,1,.41,0,.3.3,0,0,1,0,.42L431.14,285A.27.27,0,0,1,430.93,285.1Z"/><path fill="#2b3062" d="M496.39,285.37c1-1.47.49-2.38-.4-3.25s-2-1.68-2.83-2.53c-1.54-1.51-1.13-3.27-.28-4.61l-.07-.06a3.49,3.49,0,0,1-4.58-.15c-.85-.84-1.37-1.58-2.34-2.53a2.14,2.14,0,0,0-3.19-.27l-.69-.67c1.38-1.27,3.74-2.51,5.82-.48.95.94,1.31,1.48,2.38,2.53s2,1.41,3.78-.2l.65.63c-1.54,1.88-1.13,2.8-.18,3.74,1.13,1.09,2,1.73,3,2.76,2.06,2,.76,4.42-.43,5.75Z"/><path fill="#1d1f21" d="M373.86,391.73a.34.34,0,0,1-.21-.08.3.3,0,0,1,0-.42l30.67-31.34a.29.29,0,0,1,.41,0,.3.3,0,0,1,0,.42l-30.67,31.34A.29.29,0,0,1,373.86,391.73Z"/><path fill="#1d1f21" d="M419,345.62a.34.34,0,0,1-.21-.08.31.31,0,0,1,0-.42L486,276.39a.3.3,0,1,1,.43.41l-67.27,68.73A.29.29,0,0,1,419,345.62Z"/><path fill="#1d1f21" d="M379.3,397.05a.29.29,0,0,1-.21-.09.3.3,0,0,1,0-.42l71.44-73a.28.28,0,0,1,.41,0,.29.29,0,0,1,0,.41l-71.43,73A.3.3,0,0,1,379.3,397.05Z"/><path fill="#1d1f21" d="M459.62,315a.26.26,0,0,1-.2-.08.3.3,0,0,1,0-.42l32.06-32.76a.3.3,0,1,1,.42.42l-32.06,32.75A.27.27,0,0,1,459.62,315Z"/><path fill="#2b3062" d="M374.78,352.63c-1,1.47-.64,2.23.4,3.24.89.87,1.64,1.38,2.51,2.23a3.57,3.57,0,0,1,.29,4.61l.06.06a3.51,3.51,0,0,1,4.6.17c.85.83,1.67,1.87,2.65,2.82s1.7,1.31,3.18.26l.69.68c-1.38,1.27-3.86,2.39-5.92.38-.95-.94-1.51-1.68-2.6-2.75s-2.15-1.22-3.77.21l-.64-.62c1.57-1.71,1.11-2.81.16-3.75-1.12-1.1-1.66-1.42-2.71-2.46-2.06-2-.76-4.41.43-5.74Z"/><path fill="#1d1f21" d="M380.84,349.58a.29.29,0,0,1-.21-.09.3.3,0,0,1,0-.42l62.82-64.19a.31.31,0,0,1,.42,0,.29.29,0,0,1,0,.42l-62.81,64.19A.3.3,0,0,1,380.84,349.58Z"/><path fill="#1d1f21" d="M457,271.75a.26.26,0,0,1-.2-.08.3.3,0,0,1,0-.42l34.1-34.84a.29.29,0,0,1,.42,0,.3.3,0,0,1,0,.41l-34.1,34.84A.27.27,0,0,1,457,271.75Z"/><path fill="#1d1f21" d="M386.27,354.89a.29.29,0,0,1-.21-.08.3.3,0,0,1,0-.42L496.31,241.73a.3.3,0,0,1,.42,0,.29.29,0,0,1,0,.42L386.48,354.81A.28.28,0,0,1,386.27,354.89Z"/><path fill="#1d1f21" d="M391.7,360.21a.32.32,0,0,1-.2-.08.3.3,0,0,1,0-.42l29.84-30.49a.3.3,0,0,1,.42.42l-29.83,30.48A.31.31,0,0,1,391.7,360.21Z"/><path fill="#1d1f21" d="M435.25,315.71a.28.28,0,0,1-.21-.08.3.3,0,0,1,0-.42l66.71-68.16a.29.29,0,0,1,.41,0,.3.3,0,0,1,0,.42l-66.71,68.17A.28.28,0,0,1,435.25,315.71Z"/><path fill="#1d1f21" d="M381.71,412a.28.28,0,0,1-.2-.08L322.32,354a.29.29,0,0,1-.09-.21.3.3,0,0,1,.08-.21L469.6,203a.3.3,0,0,1,.42,0L529.21,261a.3.3,0,0,1,0,.42L381.92,411.88A.37.37,0,0,1,381.71,412Zm-58.77-58.22,58.77,57.51L528.59,261.17l-58.77-57.51Z"/><path fill="#161735" d="M299.08,653.46a32.45,32.45,0,0,1,2.71-7.27c1.3-2.42,8.25-7.72,11-7.62,0,0,7.4,4,10.75,6.36,2.4,1.69,3.77,7,4.2,8.44a3.16,3.16,0,0,1-3,4.12H302.1A3.14,3.14,0,0,1,299.08,653.46Z"/><path fill="#f9de8a" d="M300.29,649.69A18.19,18.19,0,0,1,303.2,644a14.73,14.73,0,0,0,2.95-11.52L305,626.33a1,1,0,0,1,.58-1.11c6.57-2.83,13.34-.8,15.56,0a1,1,0,0,1,.64,1.07c-.24,1.75-.57,4.2-.92,6.71a15.85,15.85,0,0,0,3,11.35,17.87,17.87,0,0,1,2.61,5.22,2.89,2.89,0,0,1-2.73,3.77H303.05A2.88,2.88,0,0,1,300.29,649.69Z"/><path fill="#f9de8a" d="M326.41,648.94s-2.28-7.92-2.54-9.91c-.64-4.84-3.84-10.6-10.46-11.06-5.16-.36-9.88,6-10.41,10.6-.34,3-2.59,11.12-2.59,11.12S318.74,654.62,326.41,648.94Z"/><g clip-path="url(#p)"><ellipse cx="313.57" cy="623.77" fill="#f2b13b" rx="8.53" ry="17.24"/></g><path fill="#ff9d83" d="M306.92,352.65c3.86-16.65,31.46,12.14,40.16,20.77S369.57,386,369.57,386v0a29.85,29.85,0,0,0,10-.51c2.29-.58,5.08-1.46,6.46-1.9v0a28,28,0,0,1,6.17-2.23c2.61-.45,7.42-.85,7.63-.85s.06.42,0,.82a2.28,2.28,0,0,1-.72,1.32,5.48,5.48,0,0,1-2.11,1.28,62.13,62.13,0,0,0-6.81,1.71,9.86,9.86,0,0,0-2.37,2,1.12,1.12,0,0,0,.22.16c3.11,1.83,15,4.18,16.08,4.32a15.57,15.57,0,0,1,1.8.35.6.6,0,0,1,.44.52,1.68,1.68,0,0,1-1.51,2.05c-1.11.1-4,.08-6.48,0,1.33.18,3.18.38,4.38.51a6.86,6.86,0,0,0,1.81,0c2-.31,1.39,1.83-.54,2.52a25.11,25.11,0,0,1-5.25.35l2.27.26a7.31,7.31,0,0,0,1.81,0c2-.31,1.4,1.82-.53,2.52-1.07.38-4.86.33-6,.36a12.55,12.55,0,0,1-1.54-.22c1.5.49,3.92,1.23,5,1.45,2.82.56,2.68,1.7.65,2a37.42,37.42,0,0,1-6.34-.22c-6.09-.94-13-4.34-13.07-4.38a53.29,53.29,0,0,0-6.07-2.38l-7.93-2v0c-6.29-1.67-22.53-6.25-35.58-12.39C302.47,369.66,304.67,362.37,306.92,352.65Z"/><g clip-path="url(#q)"><path fill="#e26e6c" d="M323.74,352.71a21.91,21.91,0,0,1-6.19,5.88c-4,2.53-8.95,12.62-2.43,18s-12.93-4.52-12.93-4.52.52-9.39,6.62-13.95S323.74,352.71,323.74,352.71Z"/></g><path fill="#2b6ab7" d="M329.22,614.68a2.43,2.43,0,0,0-1.09-2c-1.26-.84-4-2-9.79-2-13.3,0-13.28-2.39-14.68-.74s-1.81,8.93.67,9.13c3.32.27,7.1.69,11,.82a38.87,38.87,0,0,1,10,1.79C328,622.63,329.25,617.29,329.22,614.68Z"/><path fill="#161735" d="M373.48,648.06c4.33,3.13,14.3,0,23.69.53s23.74,3.53,33.28.19a7,7,0,0,0,4.47-3.7h0c1.32.53.7,5.24.23,6.5s-1.71,2.95-4.57,3.95c-9.54,3.33-23.89.3-33.28-.2s-19.37,2.6-23.7-.52c-1.83-1.32-1.7-5.5-1.3-8.67A3.39,3.39,0,0,0,373.48,648.06Z"/><path fill="#f9de8a" d="M372.79,641.15c.85-5.8,1-10,1-10h1.07a1.33,1.33,0,0,1,1.34,1.24,2.2,2.2,0,0,0,.23.7,5.77,5.77,0,0,0,4.78,3.06c3.23.23,6.85.26,9.05-.5,3.2-1.09,3.79-5.65,3.89-7.74a2.51,2.51,0,0,1,1.09-1.94c1-.72,2.66-1.46,4-.41,3.11,2.36,13.35,9.54,18.66,13.25a14.71,14.71,0,0,0,6.71,2.56,32.92,32.92,0,0,1,8.8,2.15,2.72,2.72,0,0,1,1.56,3.35,7,7,0,0,1-4.48,4.23c-9.39,3.61-23.61.49-32.89,0S377.3,653,372.79,650C372,649.49,372.27,644.73,372.79,641.15Z"/><g clip-path="url(#r)"><path fill="#f2b13b" d="M423.46,634.59s2,8.24-9.11,6.5S393.32,631.3,392,628s5.23-12.62,11.72-8.09S423.46,634.59,423.46,634.59Z"/></g><path fill="#2b6ab7" d="M400.56,616.11a2.45,2.45,0,0,0-1.21-1.91c-1.3-.76-4.16-1.76-9.89-1.4-13.28.82-13.4-1.57-14.7.17s-1.25,9,1.23,9.06c3.33.07,7.13.26,11.07.14a38.85,38.85,0,0,1,10.09,1.18C399.85,624.11,400.76,618.71,400.56,616.11Z"/><path fill="#fff" d="M400.56,616.41a.29.29,0,0,1-.29-.28,2.12,2.12,0,0,0-1.07-1.67c-1.14-.67-3.92-1.74-9.72-1.37a51.46,51.46,0,0,1-12.42-.34c-1.41-.22-1.59-.25-2.07.39a.29.29,0,1,1-.47-.35c.69-.93,1.18-.85,2.63-.62a51.72,51.72,0,0,0,12.29.33c5.66-.35,8.6.6,10.06,1.45a2.72,2.72,0,0,1,1.36,2.14.29.29,0,0,1-.27.31Z"/><path fill="#fff" d="M329.22,615a.31.31,0,0,1-.3-.29,2.13,2.13,0,0,0-1-1.74c-1.09-.73-3.81-2-9.62-2A51.72,51.72,0,0,1,306,609.88c-1.39-.3-1.57-.34-2.09.26a.29.29,0,1,1-.45-.38c.75-.88,1.23-.77,2.67-.46a51.51,51.51,0,0,0,12.24,1.09c5.67,0,8.54,1.13,10,2.07a2.69,2.69,0,0,1,1.22,2.22.29.29,0,0,1-.29.3Z"/><path fill="#ff9d83" d="M526,259.51a.85.85,0,0,0-1.56-.37,6.33,6.33,0,0,0-1.18,3.3c.06,2.35.34,11.58.34,11.58l-.6,7s4.88-3.45,5.2-6.18c.42-3.58-1.36-9.12-1.63-10.76C526.37,263.21,526.08,260.87,526,259.51Z"/><path fill="#ff9d83" d="M524,276.75a9.91,9.91,0,0,0-3.31-9.05,22.33,22.33,0,0,1-3.44-3.36c-.36-.51-.94-1-1.41-.62s-.28,1.4-.18,1.78c.32,1.21,1.23,2.16,2.67,4.22.72,1,1.75,6.68,1.75,6.68S523.93,278.57,524,276.75Z"/><path fill="#ff9d83" d="M521.75,277.72a9.93,9.93,0,0,0-3.32-9.05,22.33,22.33,0,0,1-3.44-3.36c-.36-.51-1.58-.14-1,1.65.37,1.2.91,1.53,2.35,3.58.73,1,1.5,6.83,1.5,6.83S521.63,279.54,521.75,277.72Z"/><path fill="#ff9d83" d="M519.82,278.86a9.48,9.48,0,0,0-3.1-8.47c-1.63-1.43-3.1-3-3.64-3.57a.47.47,0,0,0-.57-.09,1.59,1.59,0,0,0-.38,1.67c.29,1.13,1,2,2.39,3.88.67,1,1.63,6.24,1.63,6.24S519.71,280.55,519.82,278.86Z"/><path fill="#ff9d83" d="M520.26,280.52a9.47,9.47,0,0,0-4.48-7.83c-1.84-1.14-3.56-2.43-4.18-2.91a.48.48,0,0,0-.58,0,1.58,1.58,0,0,0-.1,1.7c.48,1.07,1.35,1.76,3,3.43.82.83,2.65,5.89,2.65,5.89S520.43,282.21,520.26,280.52Z"/><path fill="#ff9d83" d="M528,275.4s-.13,2.18-2.93,5.6-6.37,3.95-9,5.19a14.86,14.86,0,0,0-.34-7.81c-1.24-3.83,3.37-7.56,6.83-6.11A22.56,22.56,0,0,1,528,275.4Z"/><path fill="#f1317a" d="M337.49,308.35c1.25-6.69,4.09-19.22-1.79-22.64-6.41-3.73-17.94,3.78-25.21,27.64-10.5,34.48-11.28,47.52-6.63,52.22,1.55,1.56,5.34-3.47,10.9-8.94,4.09-4,8-4.06,8-4.06S335.16,320.85,337.49,308.35Z"/><path fill="#f9a0be" d="M324.29,351.06v.14s1.19,2.77-2.66,3.4c-4.51.73-13.34,9.66-13,13.58.13,1.62-5.51-1.19-6.32-5.46s4.33-5.64,5.69-7.46,7.87-10.49,14.73-6.81A3.08,3.08,0,0,1,324.29,351.06Z"/><path fill="#fff" d="M335.1,438.65a.29.29,0,0,1-.29-.27.28.28,0,0,1,.27-.32c14.37-1.24,17.73-17.69,17.76-17.86a.3.3,0,0,1,.58.12c0,.17-3.47,17.05-18.29,18.32Z"/><path fill="#ff9d83" d="M379.61,227.39c4.75,11.83,4.31,38.17-5.55,40.06-11,2.1-29.19-3.59-34.73-23.69-3.39-12.29-1.2-21.89,10.62-26.64S374.85,215.57,379.61,227.39Z"/><path fill="#2b3062" d="M381.6,233.5s-.55-8.36-9.45-6.63-14,7.2-20.81,6.72-12.61-9.94-12.61-9.94,1.27-6.64,9.54-10.17c5.65-2.4,14.41-.07,22.51-1.21C389.57,209.65,386,228.38,381.6,233.5Z"/><path fill="#2b3062" d="M350,232.74a36.62,36.62,0,0,1-1.38,7.29c-.62,2.09-3,5.87-3,9.17a21.34,21.34,0,0,0,2.44,9.71h0c-1.27,6.76-19.43-23.77-11.91-34C341,218.35,350,232.74,350,232.74Z"/><path fill="#ff9d83" d="M340.77,247.21c2,2.53,5.79,4.18,6.59,2.25.51-1.25.52-5.75-1.48-8.29s-4.12-2.18-5.76-.89S338.77,244.67,340.77,247.21Z"/><path fill="#1d1f21" d="M345.6,247.47a.31.31,0,0,1-.26-.14s-.88-1.5-1.95-1.38a.29.29,0,0,1-.33-.26.29.29,0,0,1,.26-.32,2.32,2.32,0,0,1,1.85.78,7.12,7.12,0,0,0-2-3.34.29.29,0,0,1,.38-.45,7.14,7.14,0,0,1,2.36,4.81.31.31,0,0,1-.22.29Z"/><path fill="#2b3062" d="M382.55,238.37a13.94,13.94,0,0,0-7.38-.11c-1.38.31-2.84-2.33,1-2.88S383.09,236.83,382.55,238.37Z"/><path fill="#2b3062" d="M355.6,240.64a28.11,28.11,0,0,1,9.71-1.89c1.42.06,2.38-2.79-1.46-2.65S353.25,239.79,355.6,240.64Z"/><path fill="#1d1f21" d="M376.7,242.68c.1,1.08.65,1.9,1.22,1.85s1-1,.86-2-.65-1.9-1.22-1.85S376.6,241.61,376.7,242.68Z"/><path fill="#1d1f21" d="M376,245.09a.28.28,0,0,1-.27-.19.29.29,0,0,1,.17-.38,8.15,8.15,0,0,1,4.09-.35.29.29,0,0,1,.24.34.3.3,0,0,1-.34.25,7.32,7.32,0,0,0-3.78.31Z"/><path fill="#1d1f21" d="M361.49,244.35c.1,1.07.65,1.9,1.23,1.85s1-1,.86-2-.65-1.9-1.23-1.84S361.39,243.28,361.49,244.35Z"/><path fill="#1d1f21" d="M360.84,246.75a.3.3,0,0,1-.28-.19.3.3,0,0,1,.17-.38,8.15,8.15,0,0,1,4.09-.34.29.29,0,0,1,.25.34.29.29,0,0,1-.34.24,7.59,7.59,0,0,0-3.79.31A.18.18,0,0,1,360.84,246.75Z"/><path fill="#1d1f21" d="M373.16,259.43c-1.78,0-4.19-.32-5.64-1.83a.29.29,0,1,1,.42-.41c2.25,2.34,7.32,1.5,7.37,1.49a.29.29,0,1,1,.1.58A13.78,13.78,0,0,1,373.16,259.43Z"/><path fill="#e26e6c" d="M372.36,240s1.32,5,2.32,8.4c.87,2.95,2.33,4.81.78,5.16a8.37,8.37,0,0,1-3.09-.16,1.47,1.47,0,0,1-1.18-1.48c0-.66.4-3.16.49-4.72C371.9,243.32,372.36,240,372.36,240Z"/><path fill="#2b6ab7" d="M353.93,228.89a5.24,5.24,0,0,1-1.07-.11.31.31,0,0,1-.22-.36.3.3,0,0,1,.36-.22c3.29.74,9.26-2.83,15-6.28,1.9-1.13,3.86-2.3,5.67-3.28,2.59-1.41,4.73-1.72,6.36-.94a5,5,0,0,1,2.52,3.4.29.29,0,0,1-.24.34.3.3,0,0,1-.35-.24,4.48,4.48,0,0,0-2.19-3c-1.45-.69-3.41-.38-5.82.93-1.8,1-3.75,2.14-5.64,3.27C363,225.61,357.53,228.89,353.93,228.89Z"/><path fill="#2b3062" d="M338.5,223.84s-.07-.1-.11-.15c-.5-.66-2.78-3.45-4.8-3a.31.31,0,0,1-.36-.23.3.3,0,0,1,.23-.35c1.68-.37,3.38,1,4.44,2.11a16,16,0,0,1,.55-5.17.3.3,0,0,1,.57.16c-.35,1.28-1,4.78-.16,6.13l.11.15Z"/></g></svg>